# Blender 4.3.2
# www.blender.org
mtllib bullett.mtl
o bullet
v 0.113552 3.877629 -0.570865
v 0.195090 3.063627 -0.980785
v 0.171208 3.639213 -0.860722
v 0.323369 3.877629 -0.483956
v 0.555570 3.063627 -0.831470
v 0.487560 3.639213 -0.729685
v 0.483956 3.877629 -0.323369
v 0.831470 3.063627 -0.555570
v 0.729685 3.639213 -0.487560
v 0.570865 3.877629 -0.113552
v 0.980785 3.063627 -0.195090
v 0.860722 3.639213 -0.171208
v 0.570865 3.877629 0.113552
v 0.980785 3.063627 0.195090
v 0.860722 3.639213 0.171208
v 0.483956 3.877629 0.323369
v 0.831470 3.063627 0.555570
v 0.729685 3.639213 0.487560
v 0.323369 3.877629 0.483956
v 0.555570 3.063627 0.831470
v 0.487560 3.639213 0.729685
v 0.113552 3.877629 0.570865
v 0.195090 3.063627 0.980785
v 0.171208 3.639213 0.860722
v -0.113552 3.877629 0.570865
v -0.195090 3.063627 0.980785
v -0.171208 3.639213 0.860722
v -0.323369 3.877629 0.483956
v -0.555570 3.063627 0.831470
v -0.487560 3.639213 0.729685
v -0.483956 3.877629 0.323369
v -0.831470 3.063627 0.555570
v -0.729685 3.639213 0.487560
v -0.570865 3.877629 0.113552
v -0.980785 3.063627 0.195090
v -0.860722 3.639213 0.171208
v -0.570865 3.877629 -0.113552
v -0.980785 3.063627 -0.195090
v -0.860722 3.639213 -0.171208
v -0.483956 3.877629 -0.323369
v -0.831470 3.063627 -0.555570
v -0.729685 3.639213 -0.487560
v -0.323369 3.877629 -0.483956
v -0.555570 3.063627 -0.831470
v -0.487560 3.639213 -0.729685
v -0.113552 3.877629 -0.570865
v -0.195090 3.063627 -0.980785
v -0.171208 3.639213 -0.860722
v -0.117123 4.683423 -0.570865
v -0.045205 5.829044 0.000000
v -0.121688 4.982163 -0.551090
v -0.117420 5.260545 -0.493111
v -0.104611 5.499597 -0.400881
v -0.084132 5.683028 -0.280685
v -0.057380 5.798337 -0.140713
v -0.325372 4.682873 -0.483956
v -0.318492 4.981756 -0.467577
v -0.288371 5.260270 -0.419557
v -0.237060 5.499436 -0.343169
v -0.168057 5.682954 -0.243617
v -0.086063 5.798319 -0.127687
v -0.484768 4.682393 -0.323369
v -0.469596 4.981400 -0.312762
v -0.421059 5.260030 -0.281662
v -0.342466 5.499295 -0.232190
v -0.239172 5.682890 -0.167717
v -0.118218 5.798302 -0.092636
v -0.571037 4.682096 -0.113552
v -0.551598 4.981179 -0.109905
v -0.493749 5.259881 -0.099211
v -0.401432 5.499208 -0.082199
v -0.280937 5.682850 -0.060029
v -0.140477 5.798292 -0.034211
v -0.532026 4.684524 0.113552
v -0.522684 4.982979 0.109905
v -0.474244 5.261095 0.099211
v -0.390006 5.499919 0.082199
v -0.275711 5.683175 0.060029
v -0.139147 5.798375 0.034211
v -0.451914 4.684110 0.323369
v -0.445244 4.982673 0.312762
v -0.404632 5.260889 0.281662
v -0.332843 5.499798 0.232190
v -0.234771 5.683120 0.167717
v -0.117098 5.798361 0.092636
v -0.303896 4.683644 0.483956
v -0.302575 4.982327 0.467577
v -0.277633 5.260655 0.419557
v -0.230770 5.499661 0.343169
v -0.165179 5.683057 0.243617
v -0.085332 5.798345 0.127687
v -0.110511 4.683295 0.570865
v -0.116787 4.982069 0.551090
v -0.114114 5.260481 0.493111
v -0.102674 5.499559 0.400881
v -0.083246 5.683011 0.280685
v -0.057154 5.798333 0.140713
v 0.098798 4.683201 0.570865
v 0.083999 4.981998 0.551090
v 0.061687 5.260434 0.493111
v 0.033382 5.499532 0.400881
v 0.001013 5.682998 0.280685
v -0.033213 5.798330 0.140713
v 0.292166 4.683330 0.483956
v 0.269774 4.982094 0.467577
v 0.225197 5.260498 0.419557
v 0.161473 5.499570 0.343169
v 0.082944 5.683015 0.243617
v -0.005037 5.798334 0.127687
v 0.440162 4.683473 0.323369
v 0.412428 4.982201 0.312762
v 0.352185 5.260570 0.281662
v 0.263540 5.499612 0.232190
v 0.152533 5.683034 0.167717
v 0.026729 5.798339 0.092636
v 0.520264 4.683357 0.113552
v 0.489860 4.982114 0.109905
v 0.421792 5.260512 0.099211
v 0.320699 5.499578 0.082199
v 0.193471 5.683019 0.060029
v 0.048778 5.798335 0.034211
v 0.561657 4.691124 -0.113552
v 0.520539 4.987871 -0.109904
v 0.442488 5.264396 -0.099211
v 0.332823 5.501852 -0.082199
v 0.199017 5.684060 -0.060029
v 0.050189 5.798600 -0.034211
v 0.475604 4.688567 -0.323369
v 0.438696 4.985976 -0.312762
v 0.369906 5.263117 -0.281662
v 0.273920 5.501103 -0.232190
v 0.157281 5.683717 -0.167717
v 0.027937 5.798512 -0.092636
v 0.316421 4.685739 -0.483956
v 0.287751 4.983880 -0.467577
v 0.237324 5.261703 -0.419557
v 0.168577 5.500275 -0.343169
v 0.086194 5.683338 -0.243617
v -0.004210 5.798416 -0.127687
v 0.108264 4.684105 -0.570865
v 0.091015 4.982669 -0.551090
v 0.066420 5.260886 -0.493111
v 0.036154 5.499797 -0.400881
v 0.002282 5.683119 -0.280685
v -0.032890 5.798361 -0.140713
v 0.195090 0.189950 -0.980785
v 0.172415 -0.036418 -0.866789
v 0.555570 0.189950 -0.831470
v 0.490997 -0.036418 -0.734828
v 0.831470 0.189950 -0.555570
v 0.734828 -0.036418 -0.490997
v 0.980785 0.189950 -0.195090
v 0.866789 -0.036418 -0.172415
v 0.980785 0.189950 0.195090
v 0.866789 -0.036418 0.172415
v 0.831470 0.189950 0.555570
v 0.734828 -0.036418 0.490997
v 0.555570 0.189950 0.831470
v 0.490997 -0.036418 0.734828
v 0.195090 0.189950 0.980785
v 0.172415 -0.036418 0.866789
v -0.195090 0.189950 0.980785
v -0.172415 -0.036418 0.866789
v -0.555570 0.189950 0.831470
v -0.490997 -0.036418 0.734828
v -0.831470 0.189950 0.555570
v -0.734828 -0.036418 0.490997
v -0.980785 0.189950 0.195090
v -0.866789 -0.036418 0.172415
v -0.980785 0.189950 -0.195090
v -0.866789 -0.036418 -0.172415
v -0.831470 0.189950 -0.555570
v -0.734828 -0.036418 -0.490997
v -0.555570 0.189950 -0.831470
v -0.490997 -0.036418 -0.734828
v -0.195090 0.189950 -0.980785
v -0.172415 -0.036418 -0.866789
vn -0.0008 0.7719 -0.6357
vn -0.0000 -0.4498 -0.8931
vn -0.9961 0.0239 0.0854
vn -0.0000 -0.0000 -1.0000
vn -0.0000 0.7723 -0.6352
vn 0.3746 0.2042 -0.9044
vn 0.2431 0.7723 -0.5869
vn 0.6922 0.2042 -0.6922
vn 0.4492 0.7723 -0.4492
vn 0.9044 0.2042 -0.3746
vn 0.5869 0.7723 -0.2431
vn 0.9789 0.2042 -0.0000
vn 0.6352 0.7723 -0.0000
vn 0.9044 0.2042 0.3746
vn 0.5869 0.7723 0.2431
vn 0.6922 0.2042 0.6922
vn 0.4492 0.7723 0.4492
vn 0.3746 0.2042 0.9044
vn 0.2431 0.7723 0.5869
vn -0.0000 0.2042 0.9789
vn -0.0000 0.7723 0.6352
vn -0.3746 0.2042 0.9044
vn -0.2431 0.7723 0.5869
vn -0.6922 0.2042 0.6922
vn -0.4492 0.7723 0.4492
vn -0.9044 0.2042 0.3746
vn -0.5869 0.7723 0.2431
vn -0.9789 0.2042 -0.0000
vn -0.6352 0.7723 -0.0000
vn -0.9044 0.2042 -0.3746
vn -0.5869 0.7723 -0.2431
vn -0.6922 0.2042 -0.6922
vn -0.4492 0.7723 -0.4492
vn -0.3746 0.2042 -0.9044
vn -0.2431 0.7723 -0.5869
vn -0.3827 -0.0000 -0.9239
vn -0.7084 -0.0012 -0.7058
vn -0.7209 0.0230 0.6927
vn 0.7207 0.0335 0.6924
vn 0.7086 0.0067 -0.7056
vn -0.9283 0.0408 0.3695
vn 0.3959 0.0113 0.9182
vn 0.9245 0.0100 -0.3811
vn -0.3839 -0.0013 -0.9234
vn -0.9244 -0.0006 -0.3815
vn -0.3959 0.0055 0.9183
vn 0.9278 0.0543 0.3692
vn 0.3840 0.0029 -0.9233
vn -0.0000 -0.0000 1.0000
vn 0.9951 0.0368 0.0913
vn 0.0001 0.7718 0.6359
vn 0.2612 0.7757 0.5745
vn -0.0007 0.5482 -0.8364
vn -0.0006 0.3600 -0.9329
vn -0.0004 0.2039 -0.9790
vn -0.0002 0.0661 -0.9978
vn -0.2601 0.7696 -0.5832
vn 0.0001 0.9770 0.2132
vn -0.3375 0.5428 -0.7691
vn -0.3720 0.3526 -0.8586
vn -0.3855 0.1954 -0.9018
vn -0.3873 0.0572 -0.9202
vn -0.4671 0.7702 -0.4342
vn 0.4627 0.7792 0.4229
vn -0.6104 0.5438 -0.5760
vn -0.6762 0.3536 -0.6463
vn -0.7042 0.1963 -0.6823
vn -0.7115 0.0579 -0.7003
vn -0.5934 0.7718 -0.2285
vn 0.0944 0.9743 0.2046
vn -0.1884 0.9668 -0.1724
vn -0.7798 0.5470 -0.3045
vn -0.8683 0.3578 -0.3436
vn -0.9091 0.2009 -0.3648
vn -0.9242 0.0625 -0.3768
vn -0.6397 0.7683 0.0206
vn 0.5836 0.7813 0.2212
vn -0.8414 0.5384 0.0473
vn -0.9352 0.3453 0.0779
vn -0.9761 0.1863 0.1117
vn -0.9876 0.0476 0.1497
vn -0.6024 0.7647 0.2287
vn 0.6163 0.7870 0.0282
vn -0.7922 0.5303 0.3020
vn -0.8805 0.3343 0.3361
vn -0.9200 0.1737 0.3513
vn -0.9337 0.0336 0.3565
vn -0.4744 0.7660 0.4339
vn 0.5710 0.7903 -0.2220
vn -0.6225 0.5338 0.5724
vn -0.6918 0.3396 0.6373
vn -0.7233 0.1800 0.6667
vn -0.7347 0.0404 0.6772
vn -0.2647 0.7683 0.5828
vn -0.3459 0.5399 0.7674
vn -0.3845 0.3484 0.8549
vn -0.4024 0.1904 0.8954
vn -0.4093 0.0517 0.9109
vn -0.3088 0.9511 0.0049
vn 0.1903 0.9664 0.1726
vn -0.0942 0.9743 0.2046
vn 0.0001 0.5480 0.8365
vn 0.0001 0.3599 0.9330
vn 0.0001 0.2039 0.9790
vn -0.0000 0.0660 0.9978
vn 0.0910 0.9746 -0.2046
vn 0.3416 0.5567 0.7572
vn 0.3809 0.3718 0.8465
vn 0.4002 0.2175 0.8902
vn 0.4086 0.0804 0.9092
vn -0.2743 0.9560 0.1038
vn 0.4522 0.7847 -0.4241
vn -0.0935 0.9744 -0.2045
vn 0.6081 0.5640 0.5587
vn 0.6801 0.3815 0.6261
vn 0.7160 0.2285 0.6597
vn 0.7322 0.0919 0.6748
vn 0.3073 0.9516 0.0100
vn 0.7689 0.5684 0.2926
vn 0.8614 0.3875 0.3284
vn 0.9081 0.2353 0.3464
vn 0.9297 0.0989 0.3548
vn 0.2685 0.9577 -0.1037
vn 0.2746 0.9559 0.1036
vn 0.2540 0.7776 -0.5752
vn 0.8126 0.5801 0.0572
vn 0.9109 0.4029 0.0892
vn 0.9596 0.2527 0.1237
vn 0.9798 0.1177 0.1616
vn -0.1900 0.9665 0.1727
vn 0.7530 0.5874 -0.2966
vn 0.8460 0.4131 -0.3371
vn 0.8944 0.2644 -0.3606
vn 0.9180 0.1295 -0.3749
vn -0.2717 0.9568 -0.1034
vn 0.5929 0.5754 -0.5634
vn 0.6617 0.3968 -0.6362
vn 0.6948 0.2456 -0.6760
vn 0.7079 0.1096 -0.6978
vn 0.1853 0.9674 -0.1726
vn 0.3309 0.5604 -0.7593
vn 0.3666 0.3765 -0.8508
vn 0.3820 0.2225 -0.8970
vn 0.3860 0.0854 -0.9185
vn -0.0009 0.9770 -0.2131
vn 0.3827 -0.0000 -0.9239
vn -0.0000 -1.0000 -0.0000
vn -0.7071 -0.0000 -0.7071
vn -0.9239 -0.0000 -0.3827
vn -1.0000 -0.0000 -0.0000
vn -0.9239 -0.0000 0.3827
vn -0.7071 -0.0000 0.7071
vn -0.3827 -0.0000 0.9239
vn 0.3827 -0.0000 0.9239
vn 0.7071 -0.0000 0.7071
vn 0.9239 -0.0000 0.3827
vn 1.0000 -0.0000 -0.0000
vn 0.9239 -0.0000 -0.3827
vn 0.7071 -0.0000 -0.7071
vn 0.3418 -0.4498 -0.8252
vn 0.6315 -0.4498 -0.6315
vn 0.8252 -0.4498 -0.3418
vn 0.8931 -0.4498 -0.0000
vn 0.8252 -0.4498 0.3418
vn 0.6315 -0.4498 0.6315
vn 0.3418 -0.4498 0.8252
vn -0.0000 -0.4498 0.8931
vn -0.3418 -0.4498 0.8252
vn -0.6315 -0.4498 0.6315
vn -0.8252 -0.4498 0.3418
vn -0.8931 -0.4498 -0.0000
vn -0.8252 -0.4498 -0.3418
vn -0.6315 -0.4498 -0.6315
vn -0.3418 -0.4498 -0.8252
vn -0.0000 0.2042 -0.9789
vt 0.247185 0.283771
vt 0.253563 0.283771
vt 0.262722 0.317364
vt 0.240219 0.317364
vt 0.031250 0.528917
vt 0.968750 0.528917
vt 0.791379 0.458029
vt 0.708620 0.458029
vt 0.112992 0.222748
vt 0.112992 0.277252
vt 0.031250 0.896015
vt 0.968750 0.896015
vt 0.293956 0.485671
vt 0.206044 0.485671
vt 0.222748 0.387008
vt 0.277253 0.387008
vt 0.906250 0.896015
vt 0.966837 1.000000
vt 0.908163 1.000000
vt 0.380797 0.450910
vt 0.299577 0.484553
vt 0.327609 0.366149
vt 0.843750 0.896015
vt 0.904337 1.000000
vt 0.845663 1.000000
vt 0.447726 0.385563
vt 0.385563 0.447726
vt 0.366149 0.327609
vt 0.781250 0.896015
vt 0.841837 1.000000
vt 0.783163 1.000000
vt 0.484553 0.299577
vt 0.450910 0.380797
vt 0.387008 0.277252
vt 0.718750 0.896015
vt 0.779337 1.000000
vt 0.720663 1.000000
vt 0.485671 0.206044
vt 0.485671 0.293956
vt 0.387008 0.222748
vt 0.656250 0.896015
vt 0.716837 1.000000
vt 0.658163 1.000000
vt 0.450910 0.119203
vt 0.484553 0.200423
vt 0.366149 0.172391
vt 0.593750 0.896015
vt 0.654337 1.000000
vt 0.595663 1.000000
vt 0.385563 0.052274
vt 0.447726 0.114437
vt 0.327609 0.133851
vt 0.531250 0.896015
vt 0.591837 1.000000
vt 0.533163 1.000000
vt 0.299577 0.015447
vt 0.380797 0.049090
vt 0.277252 0.112992
vt 0.468750 0.896015
vt 0.529337 1.000000
vt 0.470663 1.000000
vt 0.206044 0.014329
vt 0.293956 0.014329
vt 0.222748 0.112992
vt 0.406250 0.896015
vt 0.466837 1.000000
vt 0.408163 1.000000
vt 0.119203 0.049090
vt 0.200423 0.015447
vt 0.172391 0.133851
vt 0.343750 0.896015
vt 0.404337 1.000000
vt 0.345663 1.000000
vt 0.052274 0.114437
vt 0.114437 0.052274
vt 0.133851 0.172391
vt 0.281250 0.896015
vt 0.341837 1.000000
vt 0.283163 1.000000
vt 0.015447 0.200423
vt 0.049090 0.119203
vt 0.218750 0.896015
vt 0.279337 1.000000
vt 0.220663 1.000000
vt 0.014329 0.293956
vt 0.014329 0.206044
vt 0.156250 0.896015
vt 0.216837 1.000000
vt 0.158163 1.000000
vt 0.049090 0.380797
vt 0.015447 0.299577
vt 0.133851 0.327609
vt 0.093750 0.896015
vt 0.154337 1.000000
vt 0.095663 1.000000
vt 0.114437 0.447726
vt 0.052274 0.385563
vt 0.172391 0.366150
vt 0.091837 1.000000
vt 0.033163 1.000000
vt 0.200423 0.484553
vt 0.119203 0.450910
vt 0.093750 0.528917
vt 0.366149 0.172391
vt 0.277252 0.112992
vt 0.222748 0.112992
vt 0.253479 0.216229
vt 0.247244 0.216229
vt 0.240450 0.182636
vt 0.262391 0.182636
vt 0.260816 0.219355
vt 0.283727 0.191532
vt 0.280765 0.385843
vt 0.225313 0.387036
vt 0.277081 0.386838
vt 0.222938 0.386843
vt 0.277210 0.386965
vt 0.222795 0.386966
vt 0.239716 0.280645
vt 0.218364 0.308468
vt 0.173619 0.366435
vt 0.172808 0.366198
vt 0.172496 0.366161
vt 0.231343 0.272233
vt 0.199845 0.290252
vt 0.269088 0.227767
vt 0.301849 0.209748
vt 0.134363 0.327654
vt 0.134202 0.327805
vt 0.133939 0.327658
vt 0.225546 0.258211
vt 0.188969 0.264407
vt 0.113365 0.277211
vt 0.113194 0.277358
vt 0.113044 0.277279
vt 0.225892 0.241789
vt 0.190330 0.235593
vt 0.274830 0.241789
vt 0.312509 0.235593
vt 0.113485 0.222310
vt 0.113328 0.221051
vt 0.113077 0.222320
vt 0.231634 0.227767
vt 0.200991 0.209748
vt 0.275197 0.258211
vt 0.313953 0.264407
vt 0.135064 0.171333
vt 0.133986 0.172515
vt 0.133885 0.172423
vt 0.239906 0.219355
vt 0.219113 0.191532
vt 0.269403 0.272233
vt 0.303085 0.290252
vt 0.174688 0.132863
vt 0.172478 0.134032
vt 0.172413 0.133897
vt 0.225790 0.112871
vt 0.222777 0.113205
vt 0.222755 0.113046
vt 0.280082 0.114023
vt 0.277223 0.113205
vt 0.277245 0.113046
vt 0.261031 0.280645
vt 0.329367 0.135526
vt 0.327522 0.134032
vt 0.327587 0.133897
vt 0.284573 0.308468
vt 0.366672 0.173844
vt 0.366014 0.172515
vt 0.366115 0.172423
vt 0.386765 0.223310
vt 0.386843 0.222791
vt 0.386966 0.222759
vt 0.386893 0.276182
vt 0.387009 0.275398
vt 0.387007 0.276787
vt 0.367428 0.325063
vt 0.365877 0.327689
vt 0.366081 0.327628
vt 0.330575 0.363681
vt 0.327275 0.366140
vt 0.327525 0.366147
vt 0.906250 0.528917
vt 0.867839 0.426359
vt 0.926359 0.367839
vt 0.958029 0.291380
vt 0.958029 0.208620
vt 0.926359 0.132161
vt 0.867839 0.073641
vt 0.791379 0.041971
vt 0.708620 0.041971
vt 0.632161 0.073641
vt 0.573641 0.132161
vt 0.541971 0.208620
vt 0.541971 0.291380
vt 0.573641 0.367839
vt 0.632161 0.426359
vt 0.156250 0.528917
vt 0.218750 0.528917
vt 0.156250 0.528917
vt 0.281250 0.528917
vt 0.343750 0.528917
vt 0.406250 0.528917
vt 0.468750 0.528917
vt 0.406250 0.528917
vt 0.531250 0.528917
vt 0.593750 0.528917
vt 0.656250 0.528917
vt 0.718750 0.528917
vt 0.656250 0.528917
vt 0.781250 0.528917
vt 0.843750 0.528917
vt 0.906250 0.528917
vt 0.029337 1.000000
vt 0.970663 1.000000
s 0
f 55/1/1 145/2/1 144/3/1 54/4/1
f 176/5/2 146/6/2 147/7/2 177/8/2
f 34/9/3 74/9/3 68/10/3 37/10/3
f 176/5/4 47/11/4 2/12/4 146/6/4
f 3/13/5 48/14/5 46/15/5 1/16/5
f 5/17/6 2/12/6 3/18/6 6/19/6
f 6/20/7 3/21/7 1/16/7 4/22/7
f 8/23/8 5/17/8 6/24/8 9/25/8
f 9/26/9 6/27/9 4/22/9 7/28/9
f 11/29/10 8/23/10 9/30/10 12/31/10
f 12/32/11 9/33/11 7/28/11 10/34/11
f 14/35/12 11/29/12 12/36/12 15/37/12
f 15/38/13 12/39/13 10/34/13 13/40/13
f 17/41/14 14/35/14 15/42/14 18/43/14
f 18/44/15 15/45/15 13/40/15 16/46/15
f 20/47/16 17/41/16 18/48/16 21/49/16
f 21/50/17 18/51/17 16/46/17 19/52/17
f 23/53/18 20/47/18 21/54/18 24/55/18
f 24/56/19 21/57/19 19/52/19 22/58/19
f 26/59/20 23/53/20 24/60/20 27/61/20
f 27/62/21 24/63/21 22/58/21 25/64/21
f 29/65/22 26/59/22 27/66/22 30/67/22
f 30/68/23 27/69/23 25/64/23 28/70/23
f 32/71/24 29/65/24 30/72/24 33/73/24
f 33/74/25 30/75/25 28/70/25 31/76/25
f 35/77/26 32/71/26 33/78/26 36/79/26
f 36/80/27 33/81/27 31/76/27 34/9/27
f 38/82/28 35/77/28 36/83/28 39/84/28
f 39/85/29 36/86/29 34/9/29 37/10/29
f 41/87/30 38/82/30 39/88/30 42/89/30
f 42/90/31 39/91/31 37/10/31 40/92/31
f 44/93/32 41/87/32 42/94/32 45/95/32
f 45/96/33 42/97/33 40/92/33 43/98/33
f 47/11/34 44/93/34 45/99/34 48/100/34
f 48/101/35 45/102/35 43/98/35 46/15/35
f 174/103/36 44/93/36 47/11/36 176/5/36
f 56/98/37 43/98/37 40/92/37 62/92/37
f 80/76/38 31/76/38 28/70/38 86/70/38
f 104/52/39 19/52/39 16/46/39 110/104/39
f 128/28/40 7/28/40 4/22/40 134/22/40
f 74/9/41 34/9/41 31/76/41 80/76/41
f 98/105/42 22/58/42 19/52/42 104/52/42
f 122/34/43 10/34/43 7/28/43 128/28/43
f 49/15/44 46/15/44 43/98/44 56/98/44
f 37/10/45 68/10/45 62/92/45 40/92/45
f 86/70/46 28/70/46 25/64/46 92/106/46
f 110/104/47 16/46/47 13/40/47 116/40/47
f 134/22/48 4/22/48 1/16/48 140/16/48
f 22/58/49 98/58/49 92/64/49 25/64/49
f 10/34/50 122/34/50 116/40/50 13/40/50
f 103/107/51 97/108/51 96/109/51 102/110/51
f 109/111/52 103/107/52 102/110/52 108/112/52
f 54/4/53 144/3/53 143/113/53 53/114/53
f 53/114/54 143/113/54 142/115/54 52/116/54
f 52/116/55 142/115/55 141/117/55 51/118/55
f 51/118/56 141/117/56 140/16/56 49/15/56
f 61/119/57 55/1/57 54/4/57 60/120/57
f 97/108/58 103/107/58 50/108/58
f 60/120/59 54/4/59 53/114/59 59/121/59
f 59/121/60 53/114/60 52/116/60 58/122/60
f 58/122/61 52/116/61 51/118/61 57/123/61
f 57/123/62 51/118/62 49/15/62 56/98/62
f 67/124/63 61/119/63 60/120/63 66/125/63
f 115/126/64 109/111/64 108/112/64 114/127/64
f 66/125/65 60/120/65 59/121/65 65/128/65
f 65/128/66 59/121/66 58/122/66 64/129/66
f 64/129/67 58/122/67 57/123/67 63/130/67
f 63/130/68 57/123/68 56/98/68 62/92/68
f 73/131/69 67/124/69 66/125/69 72/132/69
f 103/107/70 109/111/70 50/107/70
f 61/119/71 67/124/71 50/119/71
f 72/132/72 66/125/72 65/128/72 71/133/72
f 71/133/73 65/128/73 64/129/73 70/134/73
f 70/134/74 64/129/74 63/130/74 69/135/74
f 69/135/75 63/130/75 62/92/75 68/10/75
f 79/136/76 73/131/76 72/132/76 78/137/76
f 121/138/77 115/126/77 114/127/77 120/139/77
f 78/137/78 72/132/78 71/133/78 77/140/78
f 77/140/79 71/133/79 70/134/79 76/141/79
f 76/141/80 70/134/80 69/135/80 75/142/80
f 75/142/81 69/135/81 68/10/81 74/9/81
f 85/143/82 79/136/82 78/137/82 84/144/82
f 127/145/83 121/138/83 120/139/83 126/146/83
f 84/144/84 78/137/84 77/140/84 83/147/84
f 83/147/85 77/140/85 76/141/85 82/148/85
f 82/148/86 76/141/86 75/142/86 81/149/86
f 81/149/87 75/142/87 74/9/87 80/76/87
f 91/150/88 85/143/88 84/144/88 90/151/88
f 133/152/89 127/145/89 126/146/89 132/153/89
f 90/151/90 84/144/90 83/147/90 89/154/90
f 89/154/91 83/147/91 82/148/91 88/155/91
f 88/155/92 82/148/92 81/149/92 87/156/92
f 87/156/93 81/149/93 80/76/93 86/70/93
f 97/108/94 91/150/94 90/151/94 96/109/94
f 96/109/95 90/151/95 89/154/95 95/157/95
f 95/157/96 89/154/96 88/155/96 94/158/96
f 94/158/97 88/155/97 87/156/97 93/159/97
f 93/159/98 87/156/98 86/70/98 92/106/98
f 73/131/99 79/136/99 50/131/99
f 109/111/100 115/126/100 50/111/100
f 91/150/101 97/108/101 50/150/101
f 102/110/102 96/109/102 95/157/102 101/160/102
f 101/160/103 95/157/103 94/158/103 100/161/103
f 100/161/104 94/158/104 93/159/104 99/162/104
f 99/162/105 93/159/105 92/64/105 98/58/105
f 145/2/106 50/163/106 139/163/106
f 108/112/107 102/110/107 101/160/107 107/164/107
f 107/164/108 101/160/108 100/161/108 106/165/108
f 106/165/109 100/161/109 99/162/109 105/166/109
f 105/166/110 99/162/110 98/105/110 104/52/110
f 85/143/111 50/136/111 79/136/111
f 139/163/112 133/152/112 132/153/112 138/167/112
f 55/1/113 61/119/113 50/1/113
f 114/127/114 108/112/114 107/164/114 113/168/114
f 113/168/115 107/164/115 106/165/115 112/169/115
f 112/169/116 106/165/116 105/166/116 111/170/116
f 111/170/117 105/166/117 104/52/117 110/104/117
f 121/138/118 127/145/118 50/138/118
f 120/139/119 114/127/119 113/168/119 119/171/119
f 119/171/120 113/168/120 112/169/120 118/172/120
f 118/172/121 112/169/121 111/170/121 117/173/121
f 117/173/122 111/170/122 110/104/122 116/40/122
f 133/152/123 50/145/123 127/145/123
f 115/126/124 121/138/124 50/126/124
f 145/2/125 139/163/125 138/167/125 144/3/125
f 126/146/126 120/139/126 119/171/126 125/174/126
f 125/174/127 119/171/127 118/172/127 124/175/127
f 124/175/128 118/172/128 117/173/128 123/176/128
f 123/176/129 117/173/129 116/40/129 122/34/129
f 85/143/130 91/150/130 50/143/130
f 46/15/4 49/15/4 140/16/4 1/16/4
f 132/153/131 126/146/131 125/174/131 131/177/131
f 131/177/132 125/174/132 124/175/132 130/178/132
f 130/178/133 124/175/133 123/176/133 129/179/133
f 129/179/134 123/176/134 122/34/134 128/28/134
f 67/124/135 73/131/135 50/124/135
f 138/167/136 132/153/136 131/177/136 137/180/136
f 137/180/137 131/177/137 130/178/137 136/181/137
f 136/181/138 130/178/138 129/179/138 135/182/138
f 135/182/139 129/179/139 128/28/139 134/22/139
f 133/152/140 139/163/140 50/152/140
f 144/3/141 138/167/141 137/180/141 143/113/141
f 143/113/142 137/180/142 136/181/142 142/115/142
f 142/115/143 136/181/143 135/182/143 141/117/143
f 141/117/144 135/182/144 134/22/144 140/16/144
f 145/2/145 55/1/145 50/2/145
f 146/6/146 2/12/146 5/17/146 148/183/146
f 147/7/147 149/184/147 151/185/147 153/186/147 155/187/147 157/188/147 159/189/147 161/190/147 163/191/147 165/192/147 167/193/147 169/194/147 171/195/147 173/196/147 175/197/147 177/8/147
f 172/198/148 41/87/148 44/93/148 174/103/148
f 170/199/149 38/82/149 41/87/149 172/200/149
f 168/201/150 35/77/150 38/82/150 170/199/150
f 166/202/151 32/71/151 35/77/151 168/201/151
f 164/203/152 29/65/152 32/71/152 166/202/152
f 162/204/153 26/59/153 29/65/153 164/205/153
f 160/206/49 23/53/49 26/59/49 162/204/49
f 158/207/154 20/47/154 23/53/154 160/206/154
f 156/208/155 17/41/155 20/47/155 158/207/155
f 154/209/156 14/35/156 17/41/156 156/210/156
f 152/211/157 11/29/157 14/35/157 154/209/157
f 150/212/158 8/23/158 11/29/158 152/211/158
f 148/213/159 5/17/159 8/23/159 150/212/159
f 148/183/160 149/184/160 147/7/160 146/6/160
f 150/212/161 151/185/161 149/184/161 148/213/161
f 152/211/162 153/186/162 151/185/162 150/212/162
f 154/209/163 155/187/163 153/186/163 152/211/163
f 156/210/164 157/188/164 155/187/164 154/209/164
f 158/207/165 159/189/165 157/188/165 156/208/165
f 160/206/166 161/190/166 159/189/166 158/207/166
f 162/204/167 163/191/167 161/190/167 160/206/167
f 164/205/168 165/192/168 163/191/168 162/204/168
f 166/202/169 167/193/169 165/192/169 164/203/169
f 168/201/170 169/194/170 167/193/170 166/202/170
f 170/199/171 171/195/171 169/194/171 168/201/171
f 172/200/172 173/196/172 171/195/172 170/199/172
f 174/103/173 175/197/173 173/196/173 172/198/173
f 176/5/174 177/8/174 175/197/174 174/103/174
f 2/12/175 47/11/175 48/214/175 3/215/175
