# Blender 4.1.1
# www.blender.org
mtllib Missile.mtl
o Base
v 0.250000 -0.000000 -1.000000
v 0.250000 -0.000000 1.000000
v 0.245196 -0.048773 -1.000000
v 0.245196 -0.048773 1.000000
v 0.230970 -0.095671 -1.000000
v 0.230970 -0.095671 1.000000
v 0.207867 -0.138893 -1.000000
v 0.207867 -0.138893 1.000000
v 0.176777 -0.176777 -1.000000
v 0.176777 -0.176777 1.000000
v 0.138893 -0.207867 -1.000000
v 0.138893 -0.207867 1.000000
v 0.095671 -0.230970 -1.000000
v 0.095671 -0.230970 1.000000
v 0.048773 -0.245196 -1.000000
v 0.048773 -0.245196 1.000000
v 0.000000 -0.250000 -1.000000
v -0.000000 -0.250000 1.000000
v -0.048773 -0.245196 -1.000000
v -0.048773 -0.245196 1.000000
v -0.095671 -0.230970 -1.000000
v -0.095671 -0.230970 1.000000
v -0.138893 -0.207867 -1.000000
v -0.138893 -0.207867 1.000000
v -0.176777 -0.176777 -1.000000
v -0.176777 -0.176777 1.000000
v -0.207867 -0.138893 -1.000000
v -0.207867 -0.138893 1.000000
v -0.230970 -0.095671 -1.000000
v -0.230970 -0.095671 1.000000
v -0.245196 -0.048773 -1.000000
v -0.245196 -0.048773 1.000000
v -0.250000 0.000000 -1.000000
v -0.250000 0.000000 1.000000
v -0.245196 0.048773 -1.000000
v -0.245196 0.048773 1.000000
v -0.230970 0.095671 -1.000000
v -0.230970 0.095671 1.000000
v -0.207867 0.138893 -1.000000
v -0.207867 0.138893 1.000000
v -0.176777 0.176777 -1.000000
v -0.176777 0.176777 1.000000
v -0.138893 0.207867 -1.000000
v -0.138893 0.207867 1.000000
v -0.095671 0.230970 -1.000000
v -0.095671 0.230970 1.000000
v -0.048773 0.245196 -1.000000
v -0.048773 0.245196 1.000000
v 0.000000 0.250000 -1.000000
v -0.000000 0.250000 1.000000
v 0.048773 0.245196 -1.000000
v 0.048773 0.245196 1.000000
v 0.095671 0.230970 -1.000000
v 0.095671 0.230970 1.000000
v 0.138893 0.207867 -1.000000
v 0.138893 0.207867 1.000000
v 0.176777 0.176777 -1.000000
v 0.176777 0.176777 1.000000
v 0.207867 0.138893 -1.000000
v 0.207867 0.138893 1.000000
v 0.230970 0.095671 -1.000000
v 0.230970 0.095671 1.000000
v 0.245196 0.048773 -1.000000
v 0.245196 0.048773 1.000000
vn 1.0000 -0.0000 -0.0000
vn 0.9808 -0.1951 -0.0000
vn 0.9239 -0.3827 -0.0000
vn 0.8315 -0.5556 -0.0000
vn 0.7071 -0.7071 -0.0000
vn 0.5556 -0.8315 -0.0000
vn 0.3827 -0.9239 -0.0000
vn 0.1951 -0.9808 -0.0000
vn -0.0000 -1.0000 -0.0000
vn -0.1951 -0.9808 -0.0000
vn -0.3827 -0.9239 -0.0000
vn -0.5556 -0.8315 -0.0000
vn -0.7071 -0.7071 -0.0000
vn -0.8315 -0.5556 -0.0000
vn -0.9239 -0.3827 -0.0000
vn -0.9808 -0.1951 -0.0000
vn -1.0000 -0.0000 -0.0000
vn -0.9808 0.1951 -0.0000
vn -0.9239 0.3827 -0.0000
vn -0.8315 0.5556 -0.0000
vn -0.7071 0.7071 -0.0000
vn -0.5556 0.8315 -0.0000
vn -0.3827 0.9239 -0.0000
vn -0.1951 0.9808 -0.0000
vn -0.0000 1.0000 -0.0000
vn 0.1951 0.9808 -0.0000
vn 0.3827 0.9239 -0.0000
vn 0.5556 0.8315 -0.0000
vn 0.7071 0.7071 -0.0000
vn 0.8315 0.5556 -0.0000
vn 0.9239 0.3827 -0.0000
vn -0.0000 -0.0000 1.0000
vn 0.9808 0.1951 -0.0000
vn -0.0000 -0.0000 -1.0000
vt 1.000000 0.500000
vt 1.000000 1.000000
vt 0.968750 1.000000
vt 0.968750 0.500000
vt 0.937500 1.000000
vt 0.937500 0.500000
vt 0.906250 1.000000
vt 0.906250 0.500000
vt 0.875000 1.000000
vt 0.875000 0.500000
vt 0.843750 1.000000
vt 0.843750 0.500000
vt 0.812500 1.000000
vt 0.812500 0.500000
vt 0.781250 1.000000
vt 0.781250 0.500000
vt 0.750000 1.000000
vt 0.750000 0.500000
vt 0.718750 1.000000
vt 0.718750 0.500000
vt 0.687500 1.000000
vt 0.687500 0.500000
vt 0.656250 1.000000
vt 0.656250 0.500000
vt 0.625000 1.000000
vt 0.625000 0.500000
vt 0.593750 1.000000
vt 0.593750 0.500000
vt 0.562500 1.000000
vt 0.562500 0.500000
vt 0.531250 1.000000
vt 0.531250 0.500000
vt 0.500000 1.000000
vt 0.500000 0.500000
vt 0.468750 1.000000
vt 0.468750 0.500000
vt 0.437500 1.000000
vt 0.437500 0.500000
vt 0.406250 1.000000
vt 0.406250 0.500000
vt 0.375000 1.000000
vt 0.375000 0.500000
vt 0.343750 1.000000
vt 0.343750 0.500000
vt 0.312500 1.000000
vt 0.312500 0.500000
vt 0.281250 1.000000
vt 0.281250 0.500000
vt 0.250000 1.000000
vt 0.250000 0.500000
vt 0.218750 1.000000
vt 0.218750 0.500000
vt 0.187500 1.000000
vt 0.187500 0.500000
vt 0.156250 1.000000
vt 0.156250 0.500000
vt 0.125000 1.000000
vt 0.125000 0.500000
vt 0.093750 1.000000
vt 0.093750 0.500000
vt 0.062500 1.000000
vt 0.062500 0.500000
vt 0.296822 0.485388
vt 0.250000 0.490000
vt 0.203178 0.485388
vt 0.158156 0.471731
vt 0.116663 0.449553
vt 0.080294 0.419706
vt 0.050447 0.383337
vt 0.028269 0.341844
vt 0.014612 0.296822
vt 0.010000 0.250000
vt 0.014612 0.203178
vt 0.028269 0.158156
vt 0.050447 0.116663
vt 0.080294 0.080294
vt 0.116663 0.050447
vt 0.158156 0.028269
vt 0.203178 0.014612
vt 0.250000 0.010000
vt 0.296822 0.014612
vt 0.341844 0.028269
vt 0.383337 0.050447
vt 0.419706 0.080294
vt 0.449553 0.116663
vt 0.471731 0.158156
vt 0.485388 0.203178
vt 0.490000 0.250000
vt 0.485388 0.296822
vt 0.471731 0.341844
vt 0.449553 0.383337
vt 0.419706 0.419706
vt 0.383337 0.449553
vt 0.341844 0.471731
vt 0.031250 1.000000
vt 0.031250 0.500000
vt 0.000000 1.000000
vt 0.000000 0.500000
vt 0.750000 0.490000
vt 0.796822 0.485388
vt 0.841844 0.471731
vt 0.883337 0.449553
vt 0.919706 0.419706
vt 0.949553 0.383337
vt 0.971731 0.341844
vt 0.985388 0.296822
vt 0.990000 0.250000
vt 0.985388 0.203178
vt 0.971731 0.158156
vt 0.949553 0.116663
vt 0.919706 0.080294
vt 0.883337 0.050447
vt 0.841844 0.028269
vt 0.796822 0.014612
vt 0.750000 0.010000
vt 0.703178 0.014612
vt 0.658156 0.028269
vt 0.616663 0.050447
vt 0.580294 0.080294
vt 0.550447 0.116663
vt 0.528269 0.158156
vt 0.514612 0.203178
vt 0.510000 0.250000
vt 0.514612 0.296822
vt 0.528269 0.341844
vt 0.550447 0.383337
vt 0.580294 0.419706
vt 0.616663 0.449553
vt 0.658156 0.471731
vt 0.703178 0.485388
s 1
f 1/1/1 2/2/1 4/3/2 3/4/2
f 3/4/2 4/3/2 6/5/3 5/6/3
f 5/6/3 6/5/3 8/7/4 7/8/4
f 7/8/4 8/7/4 10/9/5 9/10/5
f 9/10/5 10/9/5 12/11/6 11/12/6
f 11/12/6 12/11/6 14/13/7 13/14/7
f 13/14/7 14/13/7 16/15/8 15/16/8
f 15/16/8 16/15/8 18/17/9 17/18/9
f 17/18/9 18/17/9 20/19/10 19/20/10
f 19/20/10 20/19/10 22/21/11 21/22/11
f 21/22/11 22/21/11 24/23/12 23/24/12
f 23/24/12 24/23/12 26/25/13 25/26/13
f 25/26/13 26/25/13 28/27/14 27/28/14
f 27/28/14 28/27/14 30/29/15 29/30/15
f 29/30/15 30/29/15 32/31/16 31/32/16
f 31/32/16 32/31/16 34/33/17 33/34/17
f 33/34/17 34/33/17 36/35/18 35/36/18
f 35/36/18 36/35/18 38/37/19 37/38/19
f 37/38/19 38/37/19 40/39/20 39/40/20
f 39/40/20 40/39/20 42/41/21 41/42/21
f 41/42/21 42/41/21 44/43/22 43/44/22
f 43/44/22 44/43/22 46/45/23 45/46/23
f 45/46/23 46/45/23 48/47/24 47/48/24
f 47/48/24 48/47/24 50/49/25 49/50/25
f 49/50/25 50/49/25 52/51/26 51/52/26
f 51/52/26 52/51/26 54/53/27 53/54/27
f 53/54/27 54/53/27 56/55/28 55/56/28
f 55/56/28 56/55/28 58/57/29 57/58/29
f 57/58/29 58/57/29 60/59/30 59/60/30
f 59/60/30 60/59/30 62/61/31 61/62/31
f 4/63/32 2/64/32 64/65/32 62/66/32 60/67/32 58/68/32 56/69/32 54/70/32 52/71/32 50/72/32 48/73/32 46/74/32 44/75/32 42/76/32 40/77/32 38/78/32 36/79/32 34/80/32 32/81/32 30/82/32 28/83/32 26/84/32 24/85/32 22/86/32 20/87/32 18/88/32 16/89/32 14/90/32 12/91/32 10/92/32 8/93/32 6/94/32
f 61/62/31 62/61/31 64/95/33 63/96/33
f 63/96/33 64/95/33 2/97/1 1/98/1
f 1/99/34 3/100/34 5/101/34 7/102/34 9/103/34 11/104/34 13/105/34 15/106/34 17/107/34 19/108/34 21/109/34 23/110/34 25/111/34 27/112/34 29/113/34 31/114/34 33/115/34 35/116/34 37/117/34 39/118/34 41/119/34 43/120/34 45/121/34 47/122/34 49/123/34 51/124/34 53/125/34 55/126/34 57/127/34 59/128/34 61/129/34 63/130/34
o Tip
v -0.250000 0.000000 -0.996212
v -0.245196 -0.048773 -0.996212
v -0.230970 -0.095671 -0.996212
v -0.207867 -0.138893 -0.996212
v -0.176777 -0.176777 -0.996212
v -0.138893 -0.207867 -0.996212
v -0.095671 -0.230970 -0.996212
v -0.048773 -0.245196 -0.996212
v 0.000000 -0.250000 -0.996212
v 0.048773 -0.245196 -0.996212
v 0.095671 -0.230970 -0.996212
v 0.138893 -0.207867 -0.996212
v 0.176777 -0.176777 -0.996212
v 0.207867 -0.138893 -0.996212
v 0.230970 -0.095671 -0.996212
v 0.245196 -0.048773 -0.996212
v 0.250000 -0.000000 -0.996212
v 0.245196 0.048773 -0.996212
v 0.230970 0.095671 -0.996212
v 0.207867 0.138893 -0.996212
v 0.176777 0.176777 -0.996212
v 0.138893 0.207867 -0.996212
v 0.095671 0.230970 -0.996212
v 0.048773 0.245196 -0.996212
v 0.000000 0.250000 -0.996212
v -0.048773 0.245196 -0.996212
v -0.095671 0.230970 -0.996212
v -0.138893 0.207867 -0.996212
v -0.176777 0.176777 -0.996212
v -0.207867 0.138893 -0.996212
v -0.230970 0.095671 -0.996212
v -0.245196 0.048773 -0.996212
v -0.000000 0.000000 -1.996212
vn -0.9701 -0.0000 -0.2425
vn -0.0000 -0.0000 -1.0000
vn -0.9515 -0.1893 -0.2425
vn -0.8963 -0.3713 -0.2425
vn -0.8066 -0.5390 -0.2425
vn -0.6860 -0.6860 -0.2425
vn -0.5390 -0.8066 -0.2425
vn -0.3713 -0.8963 -0.2425
vn -0.1893 -0.9515 -0.2425
vn -0.0000 -0.9701 -0.2425
vn 0.1893 -0.9515 -0.2425
vn 0.3713 -0.8963 -0.2425
vn 0.5390 -0.8066 -0.2425
vn 0.6860 -0.6860 -0.2425
vn 0.8066 -0.5390 -0.2425
vn 0.8963 -0.3713 -0.2425
vn 0.9515 -0.1893 -0.2425
vn 0.9701 -0.0000 -0.2425
vn 0.9515 0.1893 -0.2425
vn 0.8963 0.3713 -0.2425
vn 0.8066 0.5390 -0.2425
vn 0.6860 0.6860 -0.2425
vn 0.5390 0.8066 -0.2425
vn 0.3713 0.8963 -0.2425
vn 0.1893 0.9515 -0.2425
vn -0.0000 0.9701 -0.2425
vn -0.1893 0.9515 -0.2425
vn -0.3713 0.8963 -0.2425
vn -0.5390 0.8066 -0.2425
vn -0.6860 0.6860 -0.2425
vn -0.8066 0.5390 -0.2425
vn -0.8963 0.3713 -0.2425
vn -0.0000 -0.0000 1.0000
vn -0.9515 0.1893 -0.2425
vt 0.250000 0.490000
vt 0.250000 0.250000
vt 0.296822 0.485388
vt 0.341844 0.471731
vt 0.383337 0.449553
vt 0.419706 0.419706
vt 0.449553 0.383337
vt 0.471731 0.341844
vt 0.485388 0.296822
vt 0.490000 0.250000
vt 0.485388 0.203178
vt 0.471731 0.158156
vt 0.449553 0.116663
vt 0.419706 0.080294
vt 0.383337 0.050447
vt 0.341844 0.028269
vt 0.296822 0.014612
vt 0.250000 0.010000
vt 0.203178 0.014612
vt 0.158156 0.028269
vt 0.116663 0.050447
vt 0.080294 0.080294
vt 0.050447 0.116663
vt 0.028269 0.158156
vt 0.014612 0.203178
vt 0.010000 0.250000
vt 0.014612 0.296822
vt 0.028269 0.341844
vt 0.050447 0.383337
vt 0.080294 0.419706
vt 0.116663 0.449553
vt 0.158156 0.471731
vt 0.750000 0.490000
vt 0.796822 0.485388
vt 0.841844 0.471731
vt 0.883337 0.449553
vt 0.919706 0.419706
vt 0.949553 0.383337
vt 0.971731 0.341844
vt 0.985388 0.296822
vt 0.990000 0.250000
vt 0.985388 0.203178
vt 0.971731 0.158156
vt 0.949553 0.116663
vt 0.919706 0.080294
vt 0.883337 0.050447
vt 0.841844 0.028269
vt 0.796822 0.014612
vt 0.750000 0.010000
vt 0.703178 0.014612
vt 0.658156 0.028269
vt 0.616663 0.050447
vt 0.580294 0.080294
vt 0.550447 0.116663
vt 0.528269 0.158156
vt 0.514612 0.203178
vt 0.510000 0.250000
vt 0.514612 0.296822
vt 0.528269 0.341844
vt 0.550447 0.383337
vt 0.580294 0.419706
vt 0.616663 0.449553
vt 0.658156 0.471731
vt 0.703178 0.485388
vt 0.203178 0.485388
s 1
f 65/131/35 97/132/36 66/133/37
f 66/133/37 97/132/36 67/134/38
f 67/134/38 97/132/36 68/135/39
f 68/135/39 97/132/36 69/136/40
f 69/136/40 97/132/36 70/137/41
f 70/137/41 97/132/36 71/138/42
f 71/138/42 97/132/36 72/139/43
f 72/139/43 97/132/36 73/140/44
f 73/140/44 97/132/36 74/141/45
f 74/141/45 97/132/36 75/142/46
f 75/142/46 97/132/36 76/143/47
f 76/143/47 97/132/36 77/144/48
f 77/144/48 97/132/36 78/145/49
f 78/145/49 97/132/36 79/146/50
f 79/146/50 97/132/36 80/147/51
f 80/147/51 97/132/36 81/148/52
f 81/148/52 97/132/36 82/149/53
f 82/149/53 97/132/36 83/150/54
f 83/150/54 97/132/36 84/151/55
f 84/151/55 97/132/36 85/152/56
f 85/152/56 97/132/36 86/153/57
f 86/153/57 97/132/36 87/154/58
f 87/154/58 97/132/36 88/155/59
f 88/155/59 97/132/36 89/156/60
f 89/156/60 97/132/36 90/157/61
f 90/157/61 97/132/36 91/158/62
f 91/158/62 97/132/36 92/159/63
f 92/159/63 97/132/36 93/160/64
f 93/160/64 97/132/36 94/161/65
f 94/161/65 97/132/36 95/162/66
f 65/163/67 66/164/67 67/165/67 68/166/67 69/167/67 70/168/67 71/169/67 72/170/67 73/171/67 74/172/67 75/173/67 76/174/67 77/175/67 78/176/67 79/177/67 80/178/67 81/179/67 82/180/67 83/181/67 84/182/67 85/183/67 86/184/67 87/185/67 88/186/67 89/187/67 90/188/67 91/189/67 92/190/67 93/191/67 94/192/67 95/193/67 96/194/67
f 95/162/66 97/132/36 96/195/68
f 96/195/68 97/132/36 65/131/35
o Tail
v 0.000000 -0.500000 0.994726
v 0.001951 -0.490393 0.994726
v 0.003827 -0.461940 0.994726
v 0.005556 -0.415735 0.994726
v 0.007071 -0.353553 0.994726
v 0.008315 -0.277785 0.994726
v 0.009239 -0.191342 0.994726
v 0.009808 -0.097545 0.994726
v 0.010000 0.000000 0.994726
v 0.009808 0.097545 0.994726
v 0.009239 0.191342 0.994726
v 0.008315 0.277785 0.994726
v 0.007071 0.353553 0.994726
v 0.005556 0.415735 0.994726
v 0.003827 0.461940 0.994726
v 0.001951 0.490393 0.994726
v 0.000000 0.500000 0.994726
v -0.001951 0.490393 0.994726
v -0.003827 0.461940 0.994726
v -0.005556 0.415735 0.994726
v -0.007071 0.353553 0.994726
v -0.008315 0.277785 0.994726
v -0.009239 0.191342 0.994726
v -0.009808 0.097545 0.994726
v -0.010000 0.000000 0.994726
v -0.009808 -0.097545 0.994726
v -0.009239 -0.191342 0.994726
v -0.008315 -0.277785 0.994726
v -0.007071 -0.353553 0.994726
v -0.005556 -0.415735 0.994726
v -0.003827 -0.461940 0.994726
v -0.001951 -0.490393 0.994726
v 0.000000 -0.000000 -0.005274
vn 0.9752 -0.1980 -0.0990
vn 0.9973 -0.0657 -0.0342
vn 0.9991 -0.0374 -0.0211
vn 0.9996 -0.0244 -0.0157
vn 0.9998 -0.0164 -0.0129
vn 0.9999 -0.0107 -0.0113
vn 0.9999 -0.0061 -0.0104
vn 0.9999 -0.0020 -0.0100
vn 0.9999 0.0020 -0.0100
vn 0.9999 0.0061 -0.0104
vn 0.9999 0.0107 -0.0113
vn 0.9998 0.0164 -0.0129
vn 0.9996 0.0244 -0.0157
vn 0.9991 0.0374 -0.0211
vn 0.9973 0.0657 -0.0342
vn 0.9752 0.1980 -0.0990
vn -0.9752 0.1980 -0.0990
vn -0.9973 0.0657 -0.0342
vn -0.9991 0.0374 -0.0211
vn -0.9996 0.0244 -0.0157
vn -0.9998 0.0164 -0.0129
vn -0.9999 0.0107 -0.0113
vn -0.9999 0.0061 -0.0104
vn -0.9999 0.0020 -0.0100
vn -0.9999 -0.0020 -0.0100
vn -0.9999 -0.0061 -0.0104
vn -0.9999 -0.0107 -0.0113
vn -0.9998 -0.0164 -0.0129
vn -0.9996 -0.0244 -0.0157
vn -0.9991 -0.0374 -0.0211
vn -0.0000 -0.0000 1.0000
vn -0.9973 -0.0657 -0.0342
vn -0.9752 -0.1980 -0.0990
vt 0.250000 0.490000
vt 0.250000 0.250000
vt 0.296822 0.485388
vt 0.341844 0.471731
vt 0.383337 0.449553
vt 0.419706 0.419706
vt 0.449553 0.383337
vt 0.471731 0.341844
vt 0.485388 0.296822
vt 0.490000 0.250000
vt 0.485388 0.203178
vt 0.471731 0.158156
vt 0.449553 0.116663
vt 0.419706 0.080294
vt 0.383337 0.050447
vt 0.341844 0.028269
vt 0.296822 0.014612
vt 0.250000 0.010000
vt 0.203178 0.014612
vt 0.158156 0.028269
vt 0.116663 0.050447
vt 0.080294 0.080294
vt 0.050447 0.116663
vt 0.028269 0.158156
vt 0.014612 0.203178
vt 0.010000 0.250000
vt 0.014612 0.296822
vt 0.028269 0.341844
vt 0.050447 0.383337
vt 0.080294 0.419706
vt 0.116663 0.449553
vt 0.158156 0.471731
vt 0.750000 0.490000
vt 0.796822 0.485388
vt 0.841844 0.471731
vt 0.883337 0.449553
vt 0.919706 0.419706
vt 0.949553 0.383337
vt 0.971731 0.341844
vt 0.985388 0.296822
vt 0.990000 0.250000
vt 0.985388 0.203178
vt 0.971731 0.158156
vt 0.949553 0.116663
vt 0.919706 0.080294
vt 0.883337 0.050447
vt 0.841844 0.028269
vt 0.796822 0.014612
vt 0.750000 0.010000
vt 0.703178 0.014612
vt 0.658156 0.028269
vt 0.616663 0.050447
vt 0.580294 0.080294
vt 0.550447 0.116663
vt 0.528269 0.158156
vt 0.514612 0.203178
vt 0.510000 0.250000
vt 0.514612 0.296822
vt 0.528269 0.341844
vt 0.550447 0.383337
vt 0.580294 0.419706
vt 0.616663 0.449553
vt 0.658156 0.471731
vt 0.703178 0.485388
vt 0.203178 0.485388
s 0
f 98/196/69 130/197/69 99/198/69
f 99/198/70 130/197/70 100/199/70
f 100/199/71 130/197/71 101/200/71
f 101/200/72 130/197/72 102/201/72
f 102/201/73 130/197/73 103/202/73
f 103/202/74 130/197/74 104/203/74
f 104/203/75 130/197/75 105/204/75
f 105/204/76 130/197/76 106/205/76
f 106/205/77 130/197/77 107/206/77
f 107/206/78 130/197/78 108/207/78
f 108/207/79 130/197/79 109/208/79
f 109/208/80 130/197/80 110/209/80
f 110/209/81 130/197/81 111/210/81
f 111/210/82 130/197/82 112/211/82
f 112/211/83 130/197/83 113/212/83
f 113/212/84 130/197/84 114/213/84
f 114/213/85 130/197/85 115/214/85
f 115/214/86 130/197/86 116/215/86
f 116/215/87 130/197/87 117/216/87
f 117/216/88 130/197/88 118/217/88
f 118/217/89 130/197/89 119/218/89
f 119/218/90 130/197/90 120/219/90
f 120/219/91 130/197/91 121/220/91
f 121/220/92 130/197/92 122/221/92
f 122/221/93 130/197/93 123/222/93
f 123/222/94 130/197/94 124/223/94
f 124/223/95 130/197/95 125/224/95
f 125/224/96 130/197/96 126/225/96
f 126/225/97 130/197/97 127/226/97
f 127/226/98 130/197/98 128/227/98
f 98/228/99 99/229/99 100/230/99 101/231/99 102/232/99 103/233/99 104/234/99 105/235/99 106/236/99 107/237/99 108/238/99 109/239/99 110/240/99 111/241/99 112/242/99 113/243/99 114/244/99 115/245/99 116/246/99 117/247/99 118/248/99 119/249/99 120/250/99 121/251/99 122/252/99 123/253/99 124/254/99 125/255/99 126/256/99 127/257/99 128/258/99 129/259/99
f 128/227/100 130/197/100 129/260/100
f 129/260/101 130/197/101 98/196/101
o Tail.001
v -0.500000 0.006509 0.994726
v -0.490393 0.004558 0.994726
v -0.461940 0.002682 0.994726
v -0.415735 0.000954 0.994726
v -0.353553 -0.000562 0.994726
v -0.277785 -0.001805 0.994726
v -0.191342 -0.002730 0.994726
v -0.097545 -0.003299 0.994726
v 0.000000 -0.003491 0.994726
v 0.097545 -0.003299 0.994726
v 0.191342 -0.002730 0.994726
v 0.277785 -0.001806 0.994726
v 0.353553 -0.000562 0.994726
v 0.415735 0.000953 0.994726
v 0.461940 0.002682 0.994726
v 0.490393 0.004558 0.994726
v 0.500000 0.006509 0.994726
v 0.490393 0.008460 0.994726
v 0.461940 0.010336 0.994726
v 0.415735 0.012065 0.994726
v 0.353553 0.013580 0.994726
v 0.277785 0.014824 0.994726
v 0.191342 0.015748 0.994726
v 0.097545 0.016317 0.994726
v 0.000000 0.016509 0.994726
v -0.097545 0.016317 0.994726
v -0.191342 0.015748 0.994726
v -0.277785 0.014824 0.994726
v -0.353553 0.013580 0.994726
v -0.415735 0.012065 0.994726
v -0.461940 0.010336 0.994726
v -0.490393 0.008460 0.994726
v -0.000000 0.006509 -0.005274
vn -0.1980 -0.9752 -0.0990
vn -0.0657 -0.9973 -0.0342
vn -0.0374 -0.9991 -0.0211
vn -0.0244 -0.9996 -0.0157
vn -0.0164 -0.9998 -0.0129
vn -0.0107 -0.9999 -0.0113
vn -0.0061 -0.9999 -0.0104
vn -0.0020 -0.9999 -0.0100
vn 0.0020 -0.9999 -0.0100
vn 0.0061 -0.9999 -0.0104
vn 0.0107 -0.9999 -0.0113
vn 0.0164 -0.9998 -0.0129
vn 0.0244 -0.9996 -0.0157
vn 0.0374 -0.9991 -0.0211
vn 0.0657 -0.9973 -0.0342
vn 0.1980 -0.9752 -0.0990
vn 0.1980 0.9752 -0.0990
vn 0.0657 0.9973 -0.0342
vn 0.0374 0.9991 -0.0211
vn 0.0244 0.9996 -0.0157
vn 0.0164 0.9998 -0.0129
vn 0.0107 0.9999 -0.0113
vn 0.0061 0.9999 -0.0104
vn 0.0020 0.9999 -0.0100
vn -0.0020 0.9999 -0.0100
vn -0.0061 0.9999 -0.0104
vn -0.0107 0.9999 -0.0113
vn -0.0164 0.9998 -0.0129
vn -0.0244 0.9996 -0.0157
vn -0.0374 0.9991 -0.0211
vn -0.0000 -0.0000 1.0000
vn -0.0657 0.9973 -0.0342
vn -0.1980 0.9752 -0.0990
vt 0.250000 0.490000
vt 0.250000 0.250000
vt 0.296822 0.485388
vt 0.341844 0.471731
vt 0.383337 0.449553
vt 0.419706 0.419706
vt 0.449553 0.383337
vt 0.471731 0.341844
vt 0.485388 0.296822
vt 0.490000 0.250000
vt 0.485388 0.203178
vt 0.471731 0.158156
vt 0.449553 0.116663
vt 0.419706 0.080294
vt 0.383337 0.050447
vt 0.341844 0.028269
vt 0.296822 0.014612
vt 0.250000 0.010000
vt 0.203178 0.014612
vt 0.158156 0.028269
vt 0.116663 0.050447
vt 0.080294 0.080294
vt 0.050447 0.116663
vt 0.028269 0.158156
vt 0.014612 0.203178
vt 0.010000 0.250000
vt 0.014612 0.296822
vt 0.028269 0.341844
vt 0.050447 0.383337
vt 0.080294 0.419706
vt 0.116663 0.449553
vt 0.158156 0.471731
vt 0.750000 0.490000
vt 0.796822 0.485388
vt 0.841844 0.471731
vt 0.883337 0.449553
vt 0.919706 0.419706
vt 0.949553 0.383337
vt 0.971731 0.341844
vt 0.985388 0.296822
vt 0.990000 0.250000
vt 0.985388 0.203178
vt 0.971731 0.158156
vt 0.949553 0.116663
vt 0.919706 0.080294
vt 0.883337 0.050447
vt 0.841844 0.028269
vt 0.796822 0.014612
vt 0.750000 0.010000
vt 0.703178 0.014612
vt 0.658156 0.028269
vt 0.616663 0.050447
vt 0.580294 0.080294
vt 0.550447 0.116663
vt 0.528269 0.158156
vt 0.514612 0.203178
vt 0.510000 0.250000
vt 0.514612 0.296822
vt 0.528269 0.341844
vt 0.550447 0.383337
vt 0.580294 0.419706
vt 0.616663 0.449553
vt 0.658156 0.471731
vt 0.703178 0.485388
vt 0.203178 0.485388
s 0
f 131/261/102 163/262/102 132/263/102
f 132/263/103 163/262/103 133/264/103
f 133/264/104 163/262/104 134/265/104
f 134/265/105 163/262/105 135/266/105
f 135/266/106 163/262/106 136/267/106
f 136/267/107 163/262/107 137/268/107
f 137/268/108 163/262/108 138/269/108
f 138/269/109 163/262/109 139/270/109
f 139/270/110 163/262/110 140/271/110
f 140/271/111 163/262/111 141/272/111
f 141/272/112 163/262/112 142/273/112
f 142/273/113 163/262/113 143/274/113
f 143/274/114 163/262/114 144/275/114
f 144/275/115 163/262/115 145/276/115
f 145/276/116 163/262/116 146/277/116
f 146/277/117 163/262/117 147/278/117
f 147/278/118 163/262/118 148/279/118
f 148/279/119 163/262/119 149/280/119
f 149/280/120 163/262/120 150/281/120
f 150/281/121 163/262/121 151/282/121
f 151/282/122 163/262/122 152/283/122
f 152/283/123 163/262/123 153/284/123
f 153/284/124 163/262/124 154/285/124
f 154/285/125 163/262/125 155/286/125
f 155/286/126 163/262/126 156/287/126
f 156/287/127 163/262/127 157/288/127
f 157/288/128 163/262/128 158/289/128
f 158/289/129 163/262/129 159/290/129
f 159/290/130 163/262/130 160/291/130
f 160/291/131 163/262/131 161/292/131
f 131/293/132 132/294/132 133/295/132 134/296/132 135/297/132 136/298/132 137/299/132 138/300/132 139/301/132 140/302/132 141/303/132 142/304/132 143/305/132 144/306/132 145/307/132 146/308/132 147/309/132 148/310/132 149/311/132 150/312/132 151/313/132 152/314/132 153/315/132 154/316/132 155/317/132 156/318/132 157/319/132 158/320/132 159/321/132 160/322/132 161/323/132 162/324/132
f 161/292/133 163/262/133 162/325/133
f 162/325/134 163/262/134 131/261/134
