# Blender 4.3.2
# www.blender.org
mtllib Sniper_Bullet.mtl
o S_Bullet
v -0.000000 -0.000096 -0.112000
v 0.096995 -0.000096 -0.056000
v 0.096995 -0.000096 0.056000
v -0.000000 -0.000096 0.112000
v -0.096995 -0.000096 0.056000
v -0.096995 -0.000096 -0.056000
v -0.000000 0.069377 -0.112000
v -0.000000 0.026280 -0.112000
v 0.096995 0.026280 -0.056000
v 0.096995 0.069377 -0.056000
v 0.096995 0.026280 0.056000
v 0.096995 0.069377 0.056000
v -0.000000 0.026280 0.112000
v -0.000000 0.069377 0.112000
v -0.096995 0.026280 0.056000
v -0.096995 0.069377 0.056000
v -0.096995 0.026280 -0.056000
v -0.096995 0.069377 -0.056000
v -0.000000 0.059747 -0.099125
v -0.000000 0.035910 -0.099125
v 0.085845 0.035910 -0.049563
v 0.085845 0.059747 -0.049563
v 0.085845 0.035910 0.049563
v 0.085845 0.059747 0.049563
v -0.000000 0.035910 0.099125
v -0.000000 0.059747 0.099125
v -0.085845 0.035910 0.049563
v -0.085845 0.059747 0.049563
v -0.085845 0.035910 -0.049563
v -0.085845 0.059747 -0.049563
v -0.069282 0.747243 -0.040000
v -0.000000 0.747243 -0.080000
v 0.069282 0.747243 -0.040000
v 0.069282 0.747243 0.040000
v -0.000000 0.747243 0.080000
v -0.069282 0.747243 0.040000
v -0.000000 0.860000 -0.050000
v 0.043301 0.860000 -0.025000
v 0.043301 0.860000 0.025000
v -0.000000 0.860000 0.050000
v -0.043301 0.860000 0.025000
v -0.043301 0.860000 -0.025000
v -0.000000 0.835153 -0.054681
v -0.000000 0.846319 -0.050000
v 0.043301 0.846319 -0.025000
v 0.047355 0.835153 -0.027340
v 0.043301 0.846319 0.025000
v 0.047355 0.835153 0.027340
v -0.000000 0.846319 0.050000
v -0.000000 0.835153 0.054681
v -0.043301 0.846319 0.025000
v -0.047355 0.835153 0.027340
v -0.043301 0.846319 -0.025000
v -0.047355 0.835153 -0.027340
v -0.000000 0.860000 -0.045000
v 0.038971 0.860000 -0.022500
v 0.038971 0.860000 0.022500
v -0.000000 0.860000 0.045000
v -0.038971 0.860000 0.022500
v -0.038971 0.860000 -0.022500
v -0.000000 0.965841 -0.033191
v -0.000000 1.110000 0.000000
v 0.028744 0.965841 -0.016595
v 0.028744 0.965841 0.016595
v -0.000000 0.965841 0.033191
v -0.028744 0.965841 0.016595
v -0.028744 0.965841 -0.016595
vn -0.5000 -0.0000 -0.8660
vn 0.5000 -0.0000 0.8660
vn -0.5000 -0.0000 0.8660
vn -1.0000 -0.0000 -0.0000
vn -0.4953 0.1367 -0.8579
vn -0.4790 0.2867 -0.8297
vn 0.5000 -0.0000 -0.8660
vn -0.0000 -1.0000 -0.0000
vn 1.0000 -0.0000 -0.0000
vn -0.9830 0.1833 -0.0000
vn -0.4915 0.1833 0.8513
vn 0.4915 0.1833 0.8513
vn -0.4915 0.1833 -0.8513
vn -0.3268 0.7568 0.5661
vn 0.3268 0.7568 0.5661
vn -0.6537 -0.7568 -0.0000
vn 0.6537 0.7568 -0.0000
vn -0.3268 -0.7568 0.5661
vn -0.3268 -0.7568 -0.5661
vn 0.9830 0.1833 -0.0000
vn 0.3268 -0.7568 -0.5661
vn -0.6537 0.7568 -0.0000
vn -0.3268 0.7568 -0.5661
vn 0.3268 0.7568 -0.5661
vn 0.6537 -0.7568 -0.0000
vn 0.3268 -0.7568 0.5661
vn 0.4953 0.1367 -0.8579
vn 0.4790 0.2867 -0.8297
vn 0.9906 0.1367 -0.0000
vn 0.9580 0.2867 -0.0000
vn 0.4953 0.1367 0.8579
vn 0.4790 0.2867 0.8297
vn -0.4996 0.0408 -0.8653
vn 0.4996 0.0408 -0.8653
vn 0.9992 0.0408 -0.0000
vn 0.4996 0.0408 0.8653
vn -0.4996 0.0408 0.8653
vn -0.4953 0.1367 0.8579
vn -0.9992 0.0408 -0.0000
vn -0.9906 0.1367 -0.0000
vn -0.9580 0.2867 -0.0000
vn -0.4790 0.2867 0.8297
vn 0.4915 0.1833 -0.8513
vn -0.0000 1.0000 -0.0000
vn 0.4977 0.0962 0.8620
vn 0.4948 0.1433 0.8571
vn 0.9954 0.0962 -0.0000
vn 0.9897 0.1433 -0.0000
vn -0.4977 0.0962 0.8620
vn -0.4948 0.1433 0.8571
vn 0.4977 0.0962 -0.8620
vn 0.4948 0.1433 -0.8571
vn -0.9954 0.0962 -0.0000
vn -0.9897 0.1433 -0.0000
vn -0.4977 0.0962 -0.8620
vn -0.4948 0.1433 -0.8571
vn 0.4903 0.1955 0.8493
vn 0.9807 0.1955 -0.0000
vn 0.4903 0.1955 -0.8493
vn -0.4903 0.1955 0.8493
vn -0.9807 0.1955 -0.0000
vn -0.4903 0.1955 -0.8493
vt 0.166667 0.500000
vt 0.166667 0.696249
vt -0.000000 0.696249
vt -0.000000 0.500000
vt 0.666667 0.500000
vt 0.666667 0.696249
vt 0.500000 0.696249
vt 0.500000 0.500000
vt 0.333333 0.696249
vt 0.333333 0.500000
vt 0.166667 0.696249
vt 0.166667 0.879743
vt 0.166667 0.988742
vt -0.000000 0.988742
vt -0.000000 0.879743
vt 1.000000 0.500000
vt 1.000000 0.696249
vt 0.833333 0.696249
vt 0.833333 0.500000
vt 0.750000 0.490000
vt 0.957846 0.370000
vt 0.957846 0.130000
vt 0.750000 0.010000
vt 0.542154 0.130000
vt 0.542154 0.370000
vt 0.833333 0.696249
vt 0.166667 1.000000
vt 0.333333 1.000000
vt 0.500000 1.000000
vt 0.666667 1.000000
vt -0.000000 1.000000
vt 0.333333 0.759485
vt 0.166667 0.759485
vt 0.500000 0.759485
vt 0.333333 0.759485
vt 0.166667 0.759485
vt -0.000000 0.759485
vt 0.833333 1.000000
vt 0.666667 0.759485
vt 0.500000 0.759485
vt 0.833333 0.759485
vt 0.666667 0.759485
vt 1.000000 0.759485
vt 0.833333 0.759485
vt 1.000000 0.879743
vt 1.000000 0.988742
vt 0.833333 0.988742
vt 0.833333 0.879743
vt 0.833333 0.988742
vt 0.666667 0.988742
vt 0.666667 0.879743
vt 0.666667 0.988742
vt 0.500000 0.988742
vt 0.500000 0.879743
vt 0.333333 0.879743
vt 0.333333 0.988742
vt 0.166667 0.988742
vt 0.500000 0.988742
vt 0.333333 0.988742
vt 1.000000 1.000000
vt 0.500000 1.000000
vt 0.833333 1.000000
vt 0.166667 1.000000
vt 0.470170 1.000000
vt 0.561698 1.000000
vt 0.539430 1.000000
vt 0.363164 1.000000
vt 0.271635 1.000000
vt 0.293903 1.000000
s 1
f 6/1/1 17/2/1 8/3/1 1/4/1
f 3/5/2 11/6/2 13/7/2 4/8/2
f 4/8/3 13/7/3 15/9/3 5/10/3
f 5/10/4 15/9/4 17/11/4 6/1/4
f 31/12/5 54/13/6 43/14/6 32/15/5
f 1/16/7 8/17/7 9/18/7 2/19/7
f 1/20/8 2/21/8 3/22/8 4/23/8 5/24/8 6/25/8
f 2/19/9 9/26/9 11/6/9 3/5/9
f 53/27/10 51/28/10 41/28/4 42/27/4
f 51/28/11 49/29/11 40/29/3 41/28/3
f 49/29/12 47/30/12 39/30/2 40/29/2
f 44/31/13 53/27/13 42/27/1 37/31/1
f 15/9/14 13/7/14 25/7/14 27/9/14
f 13/7/15 11/6/15 23/6/15 25/7/15
f 16/32/16 18/33/16 30/33/16 28/32/16
f 11/6/17 9/26/17 21/26/17 23/6/17
f 14/34/18 16/35/18 28/35/18 26/34/18
f 18/36/19 7/37/19 19/37/19 30/36/19
f 47/30/20 45/38/20 38/38/9 39/30/9
f 30/36/1 19/37/1 20/3/1 29/2/1
f 28/32/4 30/33/4 29/11/4 27/9/4
f 26/34/3 28/35/3 27/9/3 25/7/3
f 24/39/2 26/40/2 25/7/2 23/6/2
f 22/41/9 24/42/9 23/6/9 21/26/9
f 19/43/7 22/44/7 21/18/7 20/17/7
f 7/43/21 10/44/21 22/44/21 19/43/21
f 17/11/22 15/9/22 27/9/22 29/11/22
f 8/3/23 17/2/23 29/2/23 20/3/23
f 9/18/24 8/17/24 20/17/24 21/18/24
f 10/41/25 12/42/25 24/42/25 22/41/25
f 12/39/26 14/40/26 26/40/26 24/39/26
f 32/45/27 43/46/28 46/47/28 33/48/27
f 33/48/29 46/49/30 48/50/30 34/51/29
f 34/51/31 48/52/32 50/53/32 35/54/31
f 18/36/33 31/12/5 32/15/5 7/37/33
f 7/43/34 32/45/27 33/48/27 10/44/34
f 10/41/35 33/48/29 34/51/29 12/42/35
f 12/39/36 34/51/31 35/54/31 14/40/36
f 14/34/37 35/54/38 36/55/38 16/35/37
f 16/32/39 36/55/40 31/12/40 18/33/39
f 36/55/40 52/56/41 54/57/41 31/12/40
f 35/54/38 50/58/42 52/59/42 36/55/38
f 46/47/28 43/46/28 44/60/43 45/38/43
f 48/50/30 46/49/30 45/38/20 47/30/20
f 50/53/32 48/52/32 47/30/12 49/29/12
f 52/59/42 50/58/42 49/29/11 51/28/11
f 54/57/41 52/56/41 51/28/10 53/27/10
f 43/14/6 54/13/6 53/27/13 44/31/13
f 45/38/43 44/60/43 37/60/7 38/38/7
f 37/31/44 42/27/44 60/27/44 55/31/44
f 39/30/44 38/38/44 56/38/44 57/30/44
f 41/28/44 40/29/44 58/29/44 59/28/44
f 38/38/44 37/60/44 55/60/44 56/38/44
f 42/27/44 41/28/44 59/28/44 60/27/44
f 40/29/44 39/30/44 57/30/44 58/29/44
f 58/29/45 57/30/45 64/30/46 65/61/46
f 57/30/47 56/38/47 63/38/48 64/30/48
f 59/28/49 58/29/49 65/29/50 66/28/50
f 56/38/51 55/60/51 61/60/52 63/62/52
f 60/27/53 59/28/53 66/28/54 67/63/54
f 55/31/55 60/27/55 67/27/56 61/31/56
f 65/61/46 64/30/46 62/64/57
f 64/30/48 63/38/48 62/65/58
f 63/38/52 61/31/52 62/66/59
f 66/28/50 65/29/50 62/67/60
f 67/63/54 66/28/54 62/68/61
f 61/31/56 67/27/56 62/69/62
